<svg width="80" height="88" viewBox="0 0 80 88" fill="none" xmlns="http://www.w3.org/2000/svg" xmlns:xlink="http://www.w3.org/1999/xlink">
<path d="M16,40C16,42.209 17.791,44 20,44C22.209,44 24,42.209 24,40L16,40ZM20,24L24,24L24,23.996L20,24ZM55.68,20.796C56.12,22.961 58.231,24.36 60.396,23.92C62.561,23.48 63.96,21.369 63.52,19.204L55.68,20.796ZM12,44L68,44L68,36L12,36L12,44ZM68,44C70.209,44 72,45.791 72,48L80,48C80,41.373 74.627,36 68,36L68,44ZM72,48L72,76L80,76L80,48L72,48ZM72,76C72,78.209 70.209,80 68,80L68,88C74.627,88 80,82.627 80,76L72,76ZM68,80L12,80L12,88L68,88L68,80ZM12,80C9.791,80 8,78.209 8,76L0,76C0,82.627 5.373,88 12,88L12,80ZM8,76L8,48L0,48L0,76L8,76ZM8,48C8,45.791 9.791,44 12,44L12,36C5.373,36 0,41.373 0,48L8,48ZM24,40L24,24L16,24L16,40L24,40ZM24,23.996C23.996,20.028 25.466,16.2 28.126,13.256L22.189,7.894C18.2,12.311 15.994,18.052 16,24.004L24,23.996ZM28.126,13.256C30.785,10.311 34.444,8.46 38.392,8.061L37.588,0.101C31.666,0.7 26.178,3.477 22.189,7.894L28.126,13.256ZM38.392,8.061C42.34,7.662 46.295,8.744 49.49,11.098L54.234,4.657C49.442,1.127 43.51,-0.497 37.588,0.101L38.392,8.061ZM49.49,11.098C52.684,13.451 54.89,16.907 55.68,20.796L63.52,19.204C62.336,13.371 59.026,8.187 54.234,4.657L49.49,11.098Z" fill="#1E1E1E"/>
</svg>
